<?xml version="1.0" encoding="UTF-8"?>
<svg id="Layer_1" data-name="Layer 1"
  xmlns="http://www.w3.org/2000/svg" width="800" height="800" version="1.1" viewBox="0 0 800 800">
  <defs>
    <style>
      .cls-1 {
        fill: #000;
        stroke-width: 0px;
      }
    </style>
  </defs>
  <g id="Icons1">
    <g id="user">
      <path d="M394,406.4c-107.4,0-193.9-86.6-193.9-193.9S286.6,18.5,394,18.5s193.9,86.6,193.9,193.9-86.6,193.9-193.9,193.9ZM394,78.1c-74.6,0-134.2,59.6-134.2,134.2s59.6,134.2,134.2,134.2,134.2-59.6,134.2-134.2-59.6-134.2-134.2-134.2Z"/>
      <path d="M131.5,642v139.5h-59.6v-139.5c0-117.8,144.6-208.8,328.1-208.8s328.1,91,328.1,208.8v139.5h-59.6v-139.5c0-80.5-122.3-149.2-268.5-149.2s-268.5,68.6-268.5,149.2h0Z"/>
    </g>
  </g>
</svg>