<?xml version="1.0" encoding="UTF-8"?>
<svg id="Layer_1" data-name="Layer 1" xmlns="http://www.w3.org/2000/svg" width="800" height="800" version="1.1" viewBox="0 0 800 800">
  <path d="M538,374.8c-9.9-4.8-20.1-9.2-30.4-13,38.9-31.5,63.7-79.5,63.7-133.3,0-94.5-76.9-171.4-171.4-171.4s-171.4,76.9-171.4,171.4,24.9,102,63.8,133.4c-120.5,44.1-206.7,159.8-206.7,295.3h57.1c0-141.8,115.4-257.1,257.1-257.1s77.6,8.8,112.9,26l25.2-51.3h0ZM400,114.3c63,0,114.3,51.2,114.3,114.3s-51.2,114.3-114.3,114.3-114.3-51.3-114.3-114.3,51.3-114.3,114.3-114.3Z" fill="#0f1f3c" stroke-width="0"/>
  <path d="M585.7,419.7l-122.7,54.5v81.8c0,75.7,52.4,146.5,122.7,163.6,70.4-17.2,122.7-88,122.7-163.6v-81.8l-122.7-54.5ZM656.7,559.7c0,45.9-30.2,88.2-71,100.7-40.8-12.6-71-54.9-71-100.7v-47.7l71-31.6,71,31.6v47.7Z" fill="#000" fill-rule="evenodd" stroke-width="0"/>
</svg>