<?xml version="1.0" encoding="UTF-8"?>
<svg id="Layer_1" data-name="Layer 1" xmlns="http://www.w3.org/2000/svg" width="800" height="800" version="1.1" viewBox="0 0 800 800">
  <path d="M657.2,657.1H142.9V142.9h228.5v-57.2H85.7v628.6h628.6v-228.6h-57.1v171.4Z" fill="#0f1f3c" stroke-width="0"/>
  <path d="M314.3,457.1h57.1c0-78.7,64.1-142.9,142.9-142.9s142.9,64.1,142.9,142.9h57.1c0-79.8-47-148.9-114.8-180.9,18.1-20.2,29.1-47,29.1-76.2,0-63.1-51.2-114.3-114.3-114.3s-114.3,51.2-114.3,114.3,11,56,29.1,76.2c-67.8,32.1-114.8,101.1-114.8,180.9h0ZM514.3,142.9c31.5,0,57.1,25.6,57.1,57.1s-25.6,57.1-57.1,57.1-57.1-25.6-57.1-57.1,25.6-57.1,57.1-57.1ZM171.4,200h171.4v57.1h-171.4v-57.1ZM171.4,514.3h457.1v57.1H171.4v-57.1ZM171.4,314.3h114.3v57.1h-114.3v-57.1Z" fill="#0f1f3c" stroke-width="0"/>
</svg>