<?xml version="1.0" encoding="UTF-8"?>
<svg id="Layer_1" data-name="Layer 1" xmlns="http://www.w3.org/2000/svg" width="800" height="800" version="1.1" viewBox="0 0 800 800">
  <path d="M647.7,57.1h-5.1c-23.8,0-45.8,13.4-58.9,35.7-4.8,8.1-17.4,9.2-23.4,1.9-19.9-24.3-46.4-37.6-74.7-37.6s-54.6,13.4-74.5,37.6c-5.5,6.6-16.6,6.7-22.1,0-20-24.3-46.4-37.6-74.5-37.6s-54.6,13.4-74.5,37.6c-6,7.3-18.6,6.3-23.4-1.9-13.1-22.4-35.1-35.7-58.9-35.7h-5.6c-36.6,0-66.4,29.8-66.4,66.4v552.8c0,36.6,29.8,66.4,66.4,66.4h5.6c23.7,0,45.7-13.4,58.9-35.8,4.7-8.1,17.4-9.2,23.4-1.9,20,24.3,46.4,37.6,74.5,37.6s54.6-13.4,74.5-37.6c5.5-6.7,16.6-6.6,22.1,0,20,24.3,46.4,37.6,74.7,37.6s54.6-13.4,74.5-37.6c6-7.3,18.7-6.2,23.4,1.8,13.1,22.4,35.1,35.8,58.9,35.8h5.1c36.6,0,66.4-29.8,66.4-66.4V123.6c0-36.6-29.8-66.5-66.5-66.5ZM657,676.4c0,5.1-4.2,9.3-9.3,9.3h-5.1c-4.8,0-8.5-5.7-9.6-7.5-12.8-21.8-36.4-35.4-61.7-35.4s-41.5,9.5-55.2,26.1c-5.1,6.3-15.9,16.8-30.6,16.8s-25.3-10.5-30.4-16.8c-27.2-33.2-83.1-33.2-110.4,0-5.1,6.3-16,16.8-30.4,16.8s-25.3-10.5-30.4-16.8c-13.6-16.6-33.7-26.1-55.2-26.1s-48.9,13.6-61.7,35.4c-1,1.8-4.8,7.5-9.6,7.5h-5.6c-5.1,0-9.3-4.2-9.3-9.3V123.6c0-5.1,4.2-9.3,9.3-9.3h5.6c4.8,0,8.5,5.8,9.6,7.5,12.8,21.8,36.4,35.4,61.7,35.4s41.6-9.5,55.2-26.1c5.1-6.3,16-16.8,30.4-16.8s25.3,10.5,30.4,16.8c27.3,33.2,83.1,33.1,110.4,0,5.1-6.3,16-16.8,30.6-16.8s25.2,10.5,30.4,16.8c13.6,16.6,33.8,26.1,55.2,26.1s48.9-13.5,61.7-35.4c1-1.7,4.7-7.5,9.5-7.5h5.1c5.1,0,9.3,4.2,9.3,9.3v552.8Z" fill="#0f1f3c" stroke-width="0"/>
  <path d="M199.9,285.5h400v57.1H199.9v-57.1ZM199.8,428.3h285.7v57.3H199.8v-57.3Z" fill="#0f1f3c" stroke-width="0"/>
</svg>