<?xml version="1.0" encoding="UTF-8"?>
<svg id="Layer_1" data-name="Layer 1" xmlns="http://www.w3.org/2000/svg" width="800" height="800" version="1.1" viewBox="0 0 800 800">
  <g id="Page-1">
    <g id="icon">
      <path id="Combined-Shape" d="M732.7,627.1c.4,1.7.6,3.4.6,5.1v1.1s0,33.3,0,33.3c0,36.8-67.2,66.7-150,66.7s-148.7-29.3-150-65.6v-1.1s0-33.3,0-33.3v-1.1c0-1.7.3-3.4.6-5.1,9.2,6.9,20.4,13.3,33.3,18.7,30.2,12.7,71,20.8,116,20.8s89-8.8,119.6-22.4c11.4-5.1,21.4-10.9,29.7-17.2ZM366.7,53.7l300,166.7v123c-24.6-6.3-53-10-83.3-10-45.7,0-87,8.4-117.5,22-41.8,18.6-63,47-65.7,75.7v.9c0,0,.1,269.9.1,269.9l-33.5,18.6-300-166.7V220.3L366.7,53.7ZM732.7,527.1c.4,1.7.6,3.4.6,5.1v1.1s0,33.3,0,33.3c0,36.8-67.2,66.7-150,66.7s-148.7-29.3-150-65.6v-1.1s0-33.3,0-33.3v-1.1c0-1.7.3-3.4.6-5.1,9.2,6.9,20.4,13.3,33.3,18.7,30.2,12.7,71,20.8,116,20.8s89-8.8,119.6-22.4c11.4-5.1,21.4-10.9,29.7-17.2ZM266.7,364.8v225.9s66.7,37,66.7,37v-225.9l-66.7-37ZM133.3,290.7v225.9l66.7,37v-225.9l-66.7-37ZM583.3,366.7c82,0,148.7,29.3,150,65.6v1.1s0,33.3,0,33.3c0,36.8-67.2,66.7-150,66.7s-148.7-29.3-150-65.6v-1.1s0-33.3,0-33.3l.2-3.7c4.3-35.1,69.7-63,149.8-63ZM497.9,200.6l-196.2,109.5,65,36.1,196.7-109.3-65.4-36.4ZM366.7,127.7l-196.7,109.3,65.1,36.2,196.2-109.5-64.6-35.9Z" fill="#000" fill-rule="evenodd" stroke-width="0"/>
    </g>
  </g>
</svg>