<?xml version="1.0" encoding="UTF-8"?>
<svg id="Layer_1" data-name="Layer 1"
  xmlns="http://www.w3.org/2000/svg" width="800" height="800" version="1.1" viewBox="0 0 800 800">
  <path d="M399.4,25c-98.9,0-188.5,38.5-255.5,100.9l-51.2-51.3c-11.8,32.7-22.5,65.8-32.3,99.1-9.7,33.5-18.6,67.3-26.5,101.3,33.4-7.5,67.2-16.2,101.5-26.1,34.5-10.2,67.4-21.1,98.7-32.7l-54.6-54.8c59.8-55.5,138.4-86.4,220-86.3,179.7,0,325,145.3,325,325s-145.3,325-325,325c-169.8,0-310.9-130.7-323.7-300H25.6c12.9,196.9,176.4,350.1,373.7,350,207.3,0,375-167.6,375-375S606.7,25,399.4,25ZM374.4,175v260.3l119.8,119.9,35.4-35.4-105.2-105.1v-239.7h-50ZM679.4,723.5l1.4,1.8-.7-1.1-.6-.6h0ZM68.9,723.8c-.2.3-.5.4-.7.6l-.7,1.1,1.4-1.7Z"/>
</svg>