<?xml version="1.0" encoding="UTF-8"?>
<svg id="svg2" xmlns="http://www.w3.org/2000/svg" width="800" height="800" version="1.1" viewBox="0 0 800 800">
  <defs>
    <style>
      .cls-1 {
        fill: #000;
        stroke-width: 0px;
      }
    </style>
  </defs>
  <g id="layer1">
    <path id="circle14561" class="cls-1" d="M299.8,23.4C138.9,30,13.5,166.4,20.1,327.4c6.6,160.9,143.1,286.3,304,279.7,66.9-2.9,127.5-28.1,175.2-68.2,74.9,69.9,251.6,238.1,251.6,238.1l29.3-32.9s-176.3-168.1-249.1-235.8c48.1-54.5,76.2-126.7,73-205-6.8-161.1-143.3-286.5-304.2-279.9h0ZM301.7,67.2c137.2-5.7,252.5,100.3,258.2,237.5,2.8,66.5-20.9,127.9-61.8,174.2-6.1,7.2-13.1,13.5-19.8,20.1-41.4,37.4-95.8,61.4-156.2,63.8-137.2,5.7-252.5-100.3-258.2-237.5-5.5-137.2,100.5-252.5,237.7-258.2h0Z"/>
  </g>
</svg>