<?xml version="1.0" standalone="no"?>
<!DOCTYPE svg PUBLIC "-//W3C//DTD SVG 20010904//EN"
 "http://www.w3.org/TR/2001/REC-SVG-20010904/DTD/svg10.dtd">
<svg version="1.0" xmlns="http://www.w3.org/2000/svg"
 width="1024.000000pt" height="1024.000000pt" viewBox="0 0 1024.000000 1024.000000"
 preserveAspectRatio="xMidYMid meet">
<metadata>
Created by potrace 1.14, written by Peter Selinger 2001-2017
</metadata>
<g transform="translate(0.000000,1024.000000) scale(0.100000,-0.100000)"
fill="#000000" stroke="none">
<path d="M7194 8411 c-66 -30 -109 -75 -284 -301 -92 -118 -205 -258 -250
-310 -248 -286 -809 -854 -1115 -1130 -152 -138 -466 -408 -542 -468 l-41 -32
15 -58 c8 -31 16 -58 18 -60 5 -5 273 204 440 344 301 252 507 454 612 601 43
60 73 80 73 48 0 -8 -158 -244 -350 -525 l-351 -509 -147 -118 c-657 -526
-1320 -1176 -1966 -1929 -718 -836 -1122 -1465 -1196 -1863 -15 -79 -12 -182
5 -232 41 -114 163 -161 273 -105 68 36 89 52 202 150 240 211 695 739 1249
1450 498 639 1375 1825 2026 2740 99 139 100 140 210 211 140 90 260 159 341
196 143 64 277 88 291 53 23 -62 -128 -292 -421 -641 -323 -385 -449 -588
-449 -723 0 -129 81 -187 248 -178 59 4 101 14 160 37 280 112 773 448 1415
962 447 357 490 395 490 429 0 19 -7 33 -20 40 -42 22 -92 -6 -267 -147 -324
-262 -680 -525 -1048 -775 -285 -193 -408 -254 -502 -246 -61 5 -93 28 -93 68
0 40 80 146 230 305 269 286 442 508 534 685 65 125 88 200 84 271 -4 64 -26
84 -113 100 -166 31 -366 -21 -664 -173 -74 -37 -136 -68 -138 -68 -5 0 -11
-9 552 790 807 1145 734 1034 713 1077 -7 15 -24 33 -38 40 -37 19 -138 16
-186 -6z m-2060 -2823 c-15 -24 -466 -671 -702 -1008 -801 -1139 -1365 -1898
-1708 -2296 -268 -310 -378 -364 -359 -175 43 435 400 1022 1140 1876 439 507
977 1046 1485 1489 79 69 146 126 148 126 2 0 0 -6 -4 -12z"/>
</g>
</svg>
